<svg xmlns="http://www.w3.org/2000/svg" viewBox="0 0 1016.4 318.33"><defs><style>.cls-1{fill:#0a0a0a;}.cls-2{fill:#96281b;}</style></defs><g id="Camada_2" data-name="Camada 2"><g id="Camada_1-2" data-name="Camada 1"><path class="cls-1" d="M427.88,11.34h24V142.12h39.45v21.8H427.88Z"/><path class="cls-1" d="M502.87,11.34h65.39V33.13H526.84V73.46h32.92v21.8H526.84v46.86h41.42v21.8H502.87Z"/><path class="cls-1" d="M582,11.34h24V142.12h39.45v21.8H582Z"/><path class="cls-1" d="M657,11.34h65.39V33.13H681V73.46h32.91v21.8H681v46.86h41.41v21.8H657Z"/><path class="cls-1" d="M736.09,11.34h24V142.12h39.45v21.8H736.09Z"/><path class="cls-1" d="M810.21,127.73V11.34h24V129.48c0,10.9,4.58,14.82,12.21,14.82s12.21-3.92,12.21-14.82V11.34h23.1V127.73c0,24.42-12.21,38.37-35.75,38.37S810.21,152.15,810.21,127.73Z"/><path class="cls-1" d="M898.7,11.34h24V163.92h-24Z"/><path class="cls-1" d="M959.08,11.34h32.48l24.84,152.58h-24l-4.36-30.3v.44H960.82l-4.36,29.86H934.23Zm26.15,102L974.55,37.93h-.43l-10.47,75.42Z"/><path class="cls-1" d="M436.81,226.85H420.58v-14.1h48v14.1H452.32v84.63H436.81Z"/><path class="cls-1" d="M476,212.75h23c16.08,0,23,7.47,23,22.71v6.06c0,10.16-3.24,16.65-10.15,19.47v.28c7.75,2.4,10.29,9.73,10.29,20.87v17.35c0,4.8.14,8.33,1.7,12H508c-.85-2.54-1.41-4.09-1.41-12.13V281.3c0-9.17-2.68-12.13-9.74-12.13h-5.36v42.31H476Zm21.16,42.31c5.78,0,9.31-2.54,9.31-10.44V237c0-7.06-2.4-10.16-7.9-10.16h-7.06v28.21Z"/><path class="cls-1" d="M544.85,212.75h21L582,311.48H566.43l-2.82-19.6v.28H546l-2.82,19.32H528.77Zm16.93,66L554.87,230h-.28l-6.77,48.81Z"/><path class="cls-1" d="M589.43,212.75h19.46L624,271.85h.29v-59.1h13.82v98.73H622.15L603.53,239.4h-.28v72.08H589.43Z"/><path class="cls-1" d="M647,288.07v-5.64h14.67v6.77c0,7.05,3.11,9.59,8,9.59s8-2.54,8-9.88c0-8.18-3.1-13.4-13.25-22.28-13-11.43-17.21-19.47-17.21-30.75,0-15.52,8-24.54,23.13-24.54s22.57,9,22.57,24.82v4.09H678.29v-5.08c0-7-2.82-9.73-7.76-9.73s-7.76,2.68-7.76,9.45c0,7.2,3.25,12.41,13.4,21.3,13,11.43,17.07,19.32,17.07,31.6,0,16.08-8.18,25.1-23.42,25.1S647,303.87,647,288.07Z"/><path class="cls-1" d="M702.13,212.75H725c15.51,0,23.13,8.6,23.13,24.4v9.73c0,15.8-7.62,24.4-23.13,24.4h-7.34v40.2H702.13ZM725,257.18c4.93,0,7.61-2.26,7.61-9.31V236.16c0-7-2.68-9.31-7.61-9.31h-7.34v30.33Z"/><path class="cls-1" d="M755.44,288.07V236.16c0-15.8,8.33-24.82,23.56-24.82s23.56,9,23.56,24.82v51.91c0,15.8-8.33,24.82-23.56,24.82S755.44,303.87,755.44,288.07Zm31.6,1V235.17c0-7-3.1-9.73-8-9.73s-8,2.68-8,9.73v53.88c0,7.06,3.1,9.74,8,9.74S787,296.11,787,289.05Z"/><path class="cls-1" d="M813,212.75h23c16.08,0,23,7.47,23,22.71v6.06c0,10.16-3.25,16.65-10.16,19.47v.28c7.76,2.4,10.3,9.73,10.3,20.87v17.35c0,4.8.14,8.33,1.69,12H845c-.84-2.54-1.41-4.09-1.41-12.13V281.3c0-9.17-2.68-12.13-9.73-12.13h-5.36v42.31H813Zm21.16,42.31c5.78,0,9.31-2.54,9.31-10.44V237c0-7.06-2.4-10.16-7.9-10.16h-7v28.21Z"/><path class="cls-1" d="M881.69,226.85H865.47v-14.1h47.95v14.1H897.2v84.63H881.69Z"/><path class="cls-1" d="M920.9,212.75h42.32v14.1h-26.8V253h21.3v14.1h-21.3v30.33h26.8v14.1H920.9Z"/><path class="cls-1" d="M969.7,288.07v-5.64h14.67v6.77c0,7.05,3.11,9.59,8,9.59s8-2.54,8-9.88c0-8.18-3.1-13.4-13.26-22.28-13-11.43-17.2-19.47-17.2-30.75,0-15.52,8-24.54,23.13-24.54s22.57,9,22.57,24.82v4.09H1001v-5.08c0-7-2.82-9.73-7.76-9.73s-7.76,2.68-7.76,9.45c0,7.2,3.25,12.41,13.4,21.3,13,11.43,17.07,19.32,17.07,31.6,0,16.08-8.18,25.1-23.41,25.1S969.7,303.87,969.7,288.07Z"/><path class="cls-2" d="M389.86,218.63H377.63V160c0-16.43-2.21-23.05-13.43-32.28L309,72.85A45.49,45.49,0,0,0,277,59.63H258.38v-29A30.63,30.63,0,0,0,227.75,0H30.63A30.63,30.63,0,0,0,0,30.63V227.75a30.63,30.63,0,0,0,30.63,30.63h8a59.95,59.95,0,1,0,119.89,0h79.15a59.95,59.95,0,1,0,119.89,0h32.33a7.65,7.65,0,0,0,7.64-7.64V226.27A7.64,7.64,0,0,0,389.86,218.63Zm-291.3,71a31.25,31.25,0,1,1,31.22-31.24A31.27,31.27,0,0,1,98.56,289.62ZM258.38,89.44H286l61.83,61.83v8.84H258.38Zm39.19,200.18a31.25,31.25,0,1,1,31.25-31.24A31.27,31.27,0,0,1,297.57,289.62Z"/></g></g></svg>